<?xml version="1.0" encoding="UTF-8" standalone="no"?>
<!-- Created with Inkscape (http://www.inkscape.org/) -->

<svg
   width="64"
   height="64"
   viewBox="0 0 16.933333 16.933333"
   version="1.1"
   id="svg1"
   inkscape:version="1.4.3 (0d15f75, 2025-12-25)"
   sodipodi:docname="gear.svg"
   xmlns:inkscape="http://www.inkscape.org/namespaces/inkscape"
   xmlns:sodipodi="http://sodipodi.sourceforge.net/DTD/sodipodi-0.dtd"
   xmlns="http://www.w3.org/2000/svg"
   xmlns:svg="http://www.w3.org/2000/svg">
  <sodipodi:namedview
     id="namedview1"
     pagecolor="#505050"
     bordercolor="#eeeeee"
     borderopacity="1"
     inkscape:showpageshadow="0"
     inkscape:pageopacity="0"
     inkscape:pagecheckerboard="0"
     inkscape:deskcolor="#505050"
     inkscape:document-units="mm"
     inkscape:zoom="9.4035676"
     inkscape:cx="46.897095"
     inkscape:cy="43.972673"
     inkscape:window-width="1920"
     inkscape:window-height="1177"
     inkscape:window-x="-8"
     inkscape:window-y="-8"
     inkscape:window-maximized="1"
     inkscape:current-layer="layer1" />
  <defs
     id="defs1" />
  <g
     inkscape:label="Layer 1"
     inkscape:groupmode="layer"
     id="layer1">
    <path
       id="path3"
       style="fill:#ffffff;fill-opacity:1;stroke-width:0.0343493"
       d="M 8.2441502,-0.03543315 A 8.5055065,8.5049474 12.63858 0 0 4.3163795,1.042748 L 5.2993627,2.8010739 A 6.4912197,6.4912197 0 0 0 3.9922744,3.7645333 L 2.6035402,2.3050876 A 8.5055065,8.5049474 12.63858 0 0 0.4669691,5.5774013 l 1.895656,0.6824932 A 6.4912197,6.4912197 0 0 0 2.0049756,7.8541876 L -8.3992238e-4,7.6636561 A 8.5055065,8.5049474 12.63858 0 0 0.53137428,11.528094 L 2.4109288,10.803001 a 6.4912197,6.4912197 0 0 0 0.769305,1.429993 l -1.6405849,1.168818 a 8.5055065,8.5049474 12.63858 0 0 4.0392048,3.064542 l 0.6837669,-1.89418 a 6.4912197,6.4912197 0 0 0 1.5844991,0.356173 l -0.192209,2.004473 a 8.5055065,8.5049474 12.63858 0 0 4.9682473,-1.045777 l -0.984056,-1.756782 a 6.4912197,6.4912197 0 0 0 1.306484,-0.964533 l 1.389338,1.457567 a 8.5055065,8.5049474 12.63858 0 0 2.132009,-3.268825 l -1.894112,-0.683701 a 6.4912197,6.4912197 0 0 0 0,-6.7e-5 6.4912197,6.4912197 0 0 0 0.355972,-1.584298 l 2.004473,0.1922088 a 8.5055065,8.5049474 12.63858 0 0 6.7e-5,-6.62e-5 8.5055065,8.5049474 12.63858 0 0 -0.533958,-3.8799357 l -1.878079,0.7263015 a 6.4912197,6.4912197 0 0 0 -0.770781,-1.42939 L 15.38949,3.5256979 A 8.5055065,8.5049474 12.63858 0 0 11.34767,0.46451139 L 10.665513,2.3591609 A 6.4912197,6.4912197 0 0 0 9.0806775,2.0045975 L 9.271209,-1.4454216e-4 A 8.5055065,8.5049474 12.63858 0 0 8.2441502,-0.03543315 Z M 8.4666159,3.5901702 A 4.8765552,4.8765552 0 0 1 13.34322,8.4667069 4.8765552,4.8765552 0 0 1 8.4666159,13.343245 4.8765552,4.8765552 0 0 1 3.5900782,8.4667069 4.8765552,4.8765552 0 0 1 8.4666159,3.5901702 Z m 6.75e-5,1.8752602 A 3.0012198,3.0012198 0 0 0 5.4654728,8.4666407 3.0012198,3.0012198 0 0 0 8.4666834,11.467916 3.0012198,3.0012198 0 0 0 11.467892,8.4666407 3.0012198,3.0012198 0 0 0 8.4666834,5.4654304 Z" />
  </g>
</svg>
